PathFileType	4	(X/Y/Z)	C:/Users/beibeiliu/ov580/test_trc/User1\sequence.31_training_dense_left.trc
DataRate	CameraRate	NumFrames	NumMarkers	Units	OrigDataRate	OrigDataStartFrame	OrigNumFrames
120	120	17	19	mm	120	97	256
Frame#	Time	ThumbCMC			ThumbMCP			ThumbIP			ThumbTip			IndexMCP			IndexPIP			IndexTip			MiddleMCP			MiddlePIP			MiddleTip			RingMCP			RingPIP			RingTip			PinkyMCP			PinkyPIP			PinkyTip			BackHand1			BackHand2			BackHand3	
		X0	Y0	Z0	X1	Y1	Z1	X2	Y2	Z2	X3	Y3	Z3	X4	Y4	Z4	X5	Y5	Z5	X6	Y6	Z6	X7	Y7	Z7	X8	Y8	Z8	X9	Y9	Z9	X10	Y10	Z10	X11	Y11	Z11	X12	Y12	Z12	X13	Y13	Z13	X14	Y14	Z14	X15	Y15	Z15	X16	Y16	Z16	X17	Y17	Z17	X18	Y18	Z18	
96	0.8	-99.2846	-33.1081	47.7684	-84.3346	-57.2702	27.7107	-72.0203	-73.628	3.39782	-74.8781	-89.4879	-15.1421	-109.323	-6.70394	-30.8076	-108.288	-3.20649	-60.88	-113.762	-10.4975	-90.024	-141.449	-2.67826	-36.4852	-145.299	-1.04363	-69.6081	-148.696	-10.6678	-97.9424	-158.207	-25.1632	-40.7611	-155.034	-55.9824	-55.0767	-149.765	-76.4408	-30.0117	-176.451	-49.7491	-20.4677	-162.473	-74.9392	-14.4231	-146.755	-76.0486	11.7989	-162.657	-7.33242	17.9357	-165.271	-3.51641	51.5531	-124.943	-4.51916	39.0556	
97	0.808333	-100.741	-32.7471	48.9572	-83.7032	-57.0469	28.8928	-77.6695	-70.3122	5.73837	-78.0612	-88.2989	-19.516	-108.578	-5.24844	-27.3041	-109.207	-2.87522	-62.3244	-111.794	-13.5454	-90.0089	-143.285	-2.21771	-36.682	-143.649	-2.16414	-71.8091	-145.356	-16.0142	-99.9937	-158.817	-24.4958	-40.0408	-157.753	-54.9265	-54.3531	-149.736	-75.5872	-28.7786	-176.657	-48.6546	-20.2051	-160.185	-74.2086	-15.0176	-144.556	-72.9653	13.4708	-159.591	-5.99914	18.7347	-165.971	-6.79553	56.0202	-128.369	-3.54767	35.8463	
98	0.816667	-97.2142	-31.4164	50.568	-80.3986	-57.1906	30.088	-75.3657	-69.713	1.24041	-81.78	-84.2788	-18.6356	-111.193	-4.43861	-27.5525	-110.221	-2.80625	-61.6066	-111.987	-14.2843	-87.0359	-141.656	-0.623231	-37.0698	-142.139	-1.15238	-67.977	-144.853	-21.8671	-100.491	-160.072	-23.5519	-39.6393	-158.081	-51.5665	-54.4179	-147.92	-72.5809	-30.841	-175.755	-46.824	-19.6148	-160.312	-71.7254	-15.7829	-144.574	-70.8715	14.1582	-161.064	-6.57919	18.6119	-166.644	-6.47492	56.1765	-126.227	-3.88029	41.1642	
99	0.825	-100.329	-30.9695	47.2589	-82.1119	-55.0078	26.5383	-75.087	-68.4421	3.86013	-81.5979	-84.46	-18.3399	-111.39	-2.41899	-29.4519	-111.33	-0.641413	-57.7546	-111.603	-16.9305	-86.3557	-141.528	0.366521	-35.4083	-141.469	-2.6609	-71.2177	-141.968	-25.9136	-99.2301	-160.487	-22.9338	-40.6926	-153.538	-50.4742	-54.6258	-144.51	-70.8487	-29.453	-174.729	-42.5454	-19.0305	-162.054	-70.2067	-18.1418	-145.977	-69.1333	9.4188	-163.117	-4.82324	20.9209	-164.554	-5.25907	54.0733	-129.328	-0.873838	41.9587	
100	0.833333	-102.185	-31.7141	53.2529	-81.0264	-54.2833	27.3315	-76.4773	-66.0276	3.96226	-81.6313	-82.313	-20.4279	-110.368	-1.88786	-26.2857	-112.312	-0.709584	-56.5182	-112.81	-20.7898	-85.5676	-142.069	2.65326	-39.0241	-142.376	-1.85905	-69.5217	-138.73	-28.8973	-95.856	-158.693	-20.598	-37.3685	-152.501	-49.0046	-54.1973	-145.222	-71.2902	-26.2651	-178.062	-45.4407	-19.474	-160.454	-69.1152	-18.2365	-144.999	-68.3642	10.7049	-163.092	-4.98806	20.4241	-163.83	-6.11488	58.2693	-127.003	-2.7707	41.1181	
101	0.841667	-99.6111	-29.8211	48.2753	-85.7849	-51.8497	27.6348	-80.692	-62.5672	1.46917	-85.4086	-77.7546	-21.8136	-110.246	0.326835	-26.5079	-110.848	0.530222	-56.2754	-112.59	-24.2974	-84.3684	-140.729	2.73225	-34.4729	-143.329	-3.92141	-71.6665	-142.17	-30.8125	-91.3397	-158.056	-19.5571	-38.7147	-153.702	-52.1843	-52.6503	-145.415	-69.6145	-26.8062	-177.336	-43.8906	-20.0085	-160.178	-66.8096	-19.1244	-145.847	-66.6985	12.6821	-162.527	-3.41929	21.6558	-166.215	-5.90857	53.615	-126.671	0.874971	38.433	
102	0.85	-99.1159	-29.188	48.7681	-82.767	-50.6161	23.9177	-80.4789	-61.7664	0.141676	-88.7789	-76.1644	-23.9332	-109.087	3.65555	-28.6145	-110.248	1.04519	-58.7129	-112.411	-23.2557	-79.5602	-143.27	5.43044	-36.5055	-139.591	-0.455569	-70.2628	-139.523	-32.0676	-89.3273	-160.98	-18.5391	-37.6432	-151.777	-48.1956	-53.4226	-146.855	-67.8949	-26.9083	-175.413	-40.223	-19.2851	-158.536	-65.5656	-17.9899	-147.432	-65.591	12.5061	-163.853	-3.53165	20.8238	-162.942	-4.75137	54.2491	-130.065	0.986704	38.8356	
103	0.858333	-103.155	-29.4886	48.9388	-84.9746	-48.6609	25.8526	-78.7662	-60.4739	-0.562993	-89.8728	-73.4143	-26.1075	-112.087	4.48885	-26.6887	-112.195	1.22449	-59.4756	-109.056	-26.3864	-78.6646	-141.695	6.62779	-35.7638	-141.896	-2.40343	-70.9893	-137.296	-31.8075	-85.1846	-157.383	-16.078	-38.2447	-151.247	-44.9241	-53.8885	-145.163	-64.7551	-24.8889	-175.097	-40.1301	-21.6621	-157.866	-64.2716	-18.0548	-145.057	-62.7159	12.7677	-163.032	-3.68072	20.7156	-164.074	-4.51548	54.3442	-130.609	0.378844	39.7057	
104	0.866667	-102.766	-28.9559	52.0052	-84.9539	-46.6426	23.9425	-78.8373	-57.9867	-2.3581	-92.371	-69.715	-29.1932	-110.685	6.06022	-26.0455	-112.692	0.830724	-59.8855	-110.296	-29.6097	-76.3881	-142.587	7.28174	-35.2537	-140.704	-0.897686	-69.3836	-133.776	-38.5067	-81.1201	-158.951	-15.5255	-40.9734	-151.713	-42.2582	-54.3559	-143.491	-61.9885	-24.875	-175.335	-36.701	-18.7909	-158.785	-62.7836	-18.9753	-145.98	-64.5378	11.2462	-164.505	-0.846546	21.4598	-168.07	-3.31743	59.5559	-127.436	-0.659175	43.1163	
105	0.875	-102.612	-26.8019	48.9222	-83.6695	-45.903	25.3958	-82.3948	-53.3296	-3.36872	-90.4473	-66.5452	-23.9741	-108.324	6.96775	-25.3955	-113.861	3.86681	-56.4836	-107.037	-29.0191	-73.7808	-136.547	9.80318	-35.0909	-138.237	0.421996	-68.2424	-130.968	-37.5649	-77.4598	-157.59	-12.0209	-35.2479	-148.921	-43.0044	-53.3199	-143.337	-60.8592	-22.4193	-176.983	-37.811	-20.0645	-160.37	-62.8796	-19.9855	-143.345	-60.4842	7.0217	-159.334	-0.210565	23.3335	-163.731	-2.70508	59.4478	-130.284	0.618345	39.1407	
106	0.883333	-97.91	-26.8467	51.576	-79.5998	-45.5993	27.0133	-80.0484	-51.9546	-4.15053	-96.3036	-63.0199	-28.4511	-109.384	9.90944	-27.6633	-111.375	4.64168	-58.4544	-107.659	-27.8876	-69.6274	-138.855	12.2828	-37.7193	-137.648	-0.44484	-67.7139	-132.486	-40.3283	-71.4723	-156.581	-10.4705	-35.8478	-152.816	-39.8092	-52.693	-146.321	-58.7356	-25.8523	-172.825	-36.6402	-22.867	-161.675	-62.8628	-20.0116	-144.739	-61.3416	11.997	-161.995	0.0347622	21.5038	-164.487	-3.26513	60.2048	-125.894	1.40942	43.4038	
107	0.891667	-100.777	-27.2701	53.0502	-81.1539	-41.9976	22.8967	-80.2902	-49.5522	-2.00847	-93.4185	-60.698	-28.1907	-107.419	10.2134	-23.1	-111.403	5.46773	-56.7365	-108.158	-28.6444	-66.1468	-138.385	12.7196	-36.9634	-135.458	-2.05169	-68.0073	-131.261	-37.0185	-67.8145	-157.362	-9.89322	-37.108	-154.353	-37.9716	-53.7228	-142.715	-57.7469	-26.3869	-173.886	-32.991	-22.6567	-160.43	-57.7515	-22.4889	-143.919	-60.5192	6.1341	-162.867	1.4284	23.1618	-164.18	-3.30894	60.3559	-126.472	4.35684	43.4597	
108	0.9	-100.045	-25.6907	54.7031	-82.7923	-40.3038	26.39	-77.3292	-48.0083	-0.652252	-88.3081	-59.8767	-23.738	-106.579	11.2957	-22.6542	-109.169	5.75299	-55.8989	-101.542	-29.208	-64.9404	-134.594	14.6662	-36.1225	-133.435	-2.8279	-67.4065	-125.707	-38.8726	-64.7983	-156.136	-8.03168	-39.1007	-152.27	-34.6912	-54.4698	-143.07	-56.735	-28.2322	-173.553	-30.8406	-22.239	-160.637	-58.3897	-23.8368	-142.759	-63.5314	0.19871	-159.406	3.21747	24.7233	-162.89	-0.256863	59.1751	-127.372	2.97526	42.742	
109	0.908333	-99.8181	-23.3941	53.4975	-76.7453	-40.0591	30.5013	-75.5219	-47.6457	3.48374	-83.6044	-58.3768	-23.4093	-107.219	11.291	-23.9304	-106.646	6.69697	-52.8542	-101.723	-24.88	-64.1386	-132.985	13.4201	-31.0278	-130.562	-0.23455	-66.6355	-127.873	-36.2409	-65.9197	-153.189	-3.37993	-35.7285	-148.012	-31.7537	-54.9556	-144.456	-55.4057	-36.571	-173.694	-26.4099	-23.5324	-158.204	-50.9921	-28.4734	-145.089	-66.9897	-4.84624	-160.21	3.27505	28.3804	-162.468	1.76264	62.5318	-125.73	5.3787	47.6829	
110	0.916667	-97.0594	-23.5241	59.8498	-74.3965	-39.6675	32.2561	-70.6166	-47.0906	6.63921	-75.7334	-56.8692	-16.9474	-103.279	11.1171	-21.3827	-104.681	3.59223	-54.1429	-100.252	-24.0587	-65.7347	-128.635	14.45	-33.5293	-128.232	0.00183881	-65.972	-121.922	-39.6442	-68.5143	-149.316	0.708743	-33.2708	-146.545	-22.4452	-57.7067	-143.432	-53.5506	-45.4406	-170.05	-19.7477	-21.5689	-160.525	-43.2921	-34.0465	-145.354	-63.1589	-17.5786	-159.135	4.60092	28.7959	-162.964	2.52242	62.8202	-123.12	6.81699	48.6428	
111	0.925	-95.7488	-22.9741	59.6679	-76.0947	-41.4301	41.2404	-65.2984	-49.357	15.7224	-61.3191	-62.6051	-8.20806	-98.1264	9.2172	-20.7135	-99.4482	5.40241	-52.1872	-97.5621	-26.1744	-68.1827	-122.852	14.5489	-33.1497	-124.496	1.97706	-64.2651	-121.91	-36.4052	-74.4362	-148.69	2.13482	-32.4039	-146.629	-16.2476	-60.032	-142.331	-48.1892	-56.8046	-172.42	-14.5253	-17.993	-165.376	-34.5564	-40.341	-147.139	-65.2852	-32.9764	-152.458	6.46992	24.5996	-157.729	4.25267	61.9911	-123.776	5.73893	48.9712	
112	0.933333	-91.097	-24.2578	63.6076	-71.4344	-44.0142	43.0152	-61.0505	-53.8315	20.9783	-52.8521	-69.3376	-0.696095	-91.5295	5.62233	-19.1301	-88.266	2.32679	-52.8312	-91.0182	-25.2736	-73.4503	-122.664	11.0964	-30.3896	-116.214	2.94209	-63.4109	-117.397	-29.2833	-80.9024	-143.882	3.72712	-32.7973	-142.913	-10.3203	-60.84	-139.459	-40.8365	-67.6375	-168.777	-12.4047	-20.741	-165.281	-25.4508	-40.1483	-151.441	-54.8386	-47.8362	-150.864	6.47665	28.6209	-153.507	6.32953	59.6921	-117.772	7.09395	47.1096	
